{
    "accessors" : [
        {
            "bufferView" : 0,
            "componentType" : 5121,
            "count" : 120,
            "max" : [
                79
            ],
            "min" : [
                0
            ],
            "type" : "SCALAR"
        },
        {
            "bufferView" : 1,
            "componentType" : 5126,
            "count" : 80,
            "max" : [
                4.745872497558594,
                1.6667697429656982,
                3.518136978149414
            ],
            "min" : [
                -3.762094020843506,
                0.04222474247217178,
                -4.726858615875244
            ],
            "type" : "VEC3"
        },
        {
            "bufferView" : 2,
            "componentType" : 5126,
            "count" : 80,
            "max" : [
                1.0,
                1.0,
                1.0
            ],
            "min" : [
                -1.0,
                0.0,
                -1.0
            ],
            "type" : "VEC3"
        },
        {
            "bufferView" : 3,
            "componentType" : 5123,
            "count" : 2598,
            "max" : [
                1711
            ],
            "min" : [
                0
            ],
            "type" : "SCALAR"
        },
        {
            "bufferView" : 4,
            "componentType" : 5126,
            "count" : 1712,
            "max" : [
                5.0,
                5.0,
                8.249388088188425e-07
            ],
            "min" : [
                -5.000000476837158,
                -5.0,
                -1.517587661743164
            ],
            "type" : "VEC3"
        },
        {
            "bufferView" : 5,
            "componentType" : 5126,
            "count" : 1712,
            "max" : [
                1.0,
                1.0,
                1.0
            ],
            "min" : [
                -1.0,
                -1.0,
                -1.0
            ],
            "type" : "VEC3"
        },
        {
            "bufferView" : 6,
            "componentType" : 5126,
            "count" : 1712,
            "max" : [
                1.0,
                1.0,
                0.8070701360702515,
                1.0
            ],
            "min" : [
                -1.0,
                -1.0,
                -1.0,
                -1.0
            ],
            "type" : "VEC4"
        },
        {
            "bufferView" : 7,
            "componentType" : 5126,
            "count" : 1712,
            "max" : [
                0.7257096171379089,
                0.9853097572922707
            ],
            "min" : [
                0.03723682463169098,
                0.014743030071258545
            ],
            "type" : "VEC2"
        }
    ],
    "asset" : {
        "generator" : "Khronos Blender glTF 2.0 exporter",
        "version" : "2.0"
    },
    "bufferViews" : [
        {
            "buffer" : 0,
            "byteLength" : 120,
            "byteOffset" : 0,
            "target" : 34963
        },
        {
            "buffer" : 0,
            "byteLength" : 960,
            "byteOffset" : 120,
            "target" : 34962
        },
        {
            "buffer" : 0,
            "byteLength" : 960,
            "byteOffset" : 1080,
            "target" : 34962
        },
        {
            "buffer" : 0,
            "byteLength" : 5196,
            "byteOffset" : 2040,
            "target" : 34963
        },
        {
            "buffer" : 0,
            "byteLength" : 20544,
            "byteOffset" : 7236,
            "target" : 34962
        },
        {
            "buffer" : 0,
            "byteLength" : 20544,
            "byteOffset" : 27780,
            "target" : 34962
        },
        {
            "buffer" : 0,
            "byteLength" : 27392,
            "byteOffset" : 48324,
            "target" : 34962
        },
        {
            "buffer" : 0,
            "byteLength" : 13696,
            "byteOffset" : 75716,
            "target" : 34962
        }
    ],
    "buffers" : [
        {
            "byteLength" : 89412,
            "uri" : "OpenCorner_B.bin"
        }
    ],
    "images" : [
        {
            "name" : "Texture_Roads",
            "uri" : "Texture_Roads.png"
        }
    ],
    "materials" : [
        {
            "name" : "Atlas_Texture",
            "pbrMetallicRoughness" : {
                "baseColorFactor" : [
                    0.6400000190734865,
                    0.6400000190734865,
                    0.6400000190734865,
                    1.0
                ],
                "baseColorTexture" : {
                    "index" : 0
                },
                "metallicFactor" : 0.0
            }
        }
    ],
    "meshes" : [
        {
            "name" : "Cube.1418",
            "primitives" : [
                {
                    "attributes" : {
                        "NORMAL" : 2,
                        "POSITION" : 1
                    },
                    "indices" : 0
                }
            ]
        },
        {
            "name" : "Scifi_Panel_01 Plaza014_group4.012",
            "primitives" : [
                {
                    "attributes" : {
                        "NORMAL" : 5,
                        "POSITION" : 4,
                        "TANGENT" : 6,
                        "TEXCOORD_0" : 7
                    },
                    "indices" : 3,
                    "material" : 0
                }
            ]
        }
    ],
    "nodes" : [
        {
            "mesh" : 0,
            "name" : "Box39_collider",
            "rotation" : [
                0.0,
                0.7071068286895752,
                -0.0,
                0.7071067690849304
            ]
        },
        {
            "mesh" : 1,
            "name" : "Scifi_Panel_01 Plaza014_group4.034",
            "rotation" : [
                0.7071068286895752,
                0.0,
                -0.0,
                0.7071067094802856
            ]
        }
    ],
    "samplers" : [
        {}
    ],
    "scene" : 0,
    "scenes" : [
        {
            "name" : "Scene",
            "nodes" : [
                0,
                1
            ]
        }
    ],
    "textures" : [
        {
            "sampler" : 0,
            "source" : 0
        }
    ]
}
