{
    "accessors" : [
        {
            "bufferView" : 0,
            "componentType" : 5123,
            "count" : 3150,
            "max" : [
                2032
            ],
            "min" : [
                0
            ],
            "type" : "SCALAR"
        },
        {
            "bufferView" : 1,
            "componentType" : 5126,
            "count" : 2033,
            "max" : [
                4.999998092651367,
                4.999999523162842,
                0.016019364818930626
            ],
            "min" : [
                -5.000000476837158,
                -4.999998092651367,
                -11.724088668823242
            ],
            "type" : "VEC3"
        },
        {
            "bufferView" : 2,
            "componentType" : 5126,
            "count" : 2033,
            "max" : [
                1.0,
                1.0,
                1.0
            ],
            "min" : [
                -1.0,
                -1.0,
                -1.0
            ],
            "type" : "VEC3"
        },
        {
            "bufferView" : 3,
            "componentType" : 5126,
            "count" : 2033,
            "max" : [
                0.9774183034896851,
                0.8342156708240509
            ],
            "min" : [
                0.15240578353405,
                0.008586406707763672
            ],
            "type" : "VEC2"
        },
        {
            "bufferView" : 4,
            "componentType" : 5121,
            "count" : 66,
            "max" : [
                39
            ],
            "min" : [
                0
            ],
            "type" : "SCALAR"
        },
        {
            "bufferView" : 5,
            "componentType" : 5126,
            "count" : 40,
            "max" : [
                1.0623470544815063,
                1.9859650135040283,
                1.040594220161438
            ],
            "min" : [
                -1.0462936162948608,
                -0.014035224914550781,
                -1.0680464506149292
            ],
            "type" : "VEC3"
        },
        {
            "bufferView" : 6,
            "componentType" : 5126,
            "count" : 40,
            "max" : [
                0.9328531622886658,
                1.0,
                0.9328531622886658
            ],
            "min" : [
                -0.9328531622886658,
                0.0,
                -0.9328531622886658
            ],
            "type" : "VEC3"
        }
    ],
    "asset" : {
        "generator" : "Khronos Blender glTF 2.0 exporter",
        "version" : "2.0"
    },
    "bufferViews" : [
        {
            "buffer" : 0,
            "byteLength" : 6300,
            "byteOffset" : 0,
            "target" : 34963
        },
        {
            "buffer" : 0,
            "byteLength" : 24396,
            "byteOffset" : 6300,
            "target" : 34962
        },
        {
            "buffer" : 0,
            "byteLength" : 24396,
            "byteOffset" : 30696,
            "target" : 34962
        },
        {
            "buffer" : 0,
            "byteLength" : 16264,
            "byteOffset" : 55092,
            "target" : 34962
        },
        {
            "buffer" : 0,
            "byteLength" : 66,
            "byteOffset" : 71356,
            "target" : 34963
        },
        {
            "buffer" : 0,
            "byteLength" : 480,
            "byteOffset" : 71424,
            "target" : 34962
        },
        {
            "buffer" : 0,
            "byteLength" : 480,
            "byteOffset" : 71904,
            "target" : 34962
        }
    ],
    "buffers" : [
        {
            "byteLength" : 72384,
            "uri" : "Crossroads_A.bin"
        }
    ],
    "images" : [
        {
            "name" : "Texture_Roads",
            "uri" : "Texture_Roads.png"
        }
    ],
    "materials" : [
        {
            "name" : "Atlas_Texture",
            "pbrMetallicRoughness" : {
                "baseColorFactor" : [
                    0.6400000190734865,
                    0.6400000190734865,
                    0.6400000190734865,
                    1.0
                ],
                "baseColorTexture" : {
                    "index" : 0
                },
                "metallicFactor" : 0.0
            }
        }
    ],
    "meshes" : [
        {
            "name" : "Scifi_Panel_04_Plaza014_group4.011_Scifi_Panel_04_Plaza014_.006",
            "primitives" : [
                {
                    "attributes" : {
                        "NORMAL" : 2,
                        "POSITION" : 1,
                        "TEXCOORD_0" : 3
                    },
                    "indices" : 0,
                    "material" : 0
                }
            ]
        },
        {
            "name" : "Cube.031",
            "primitives" : [
                {
                    "attributes" : {
                        "NORMAL" : 6,
                        "POSITION" : 5
                    },
                    "indices" : 4
                }
            ]
        }
    ],
    "nodes" : [
        {
            "mesh" : 1,
            "name" : "Box14_collider",
            "rotation" : [
                0.0,
                -0.296638548374176,
                -0.0,
                0.9549898505210876
            ],
            "scale" : [
                1.3515291213989258,
                0.9278152585029602,
                1.3515291213989258
            ],
            "translation" : [
                0.0,
                5.960464477539063e-08,
                1.862645149230957e-09
            ]
        },
        {
            "mesh" : 0,
            "name" : "Scifi_Panel_04_Plaza014_group4.011_Scifi_Panel_04_Plaza014_.007",
            "rotation" : [
                0.7071068286895752,
                0.0,
                -0.0,
                0.7071067094802856
            ]
        }
    ],
    "samplers" : [
        {}
    ],
    "scene" : 0,
    "scenes" : [
        {
            "name" : "Scene",
            "nodes" : [
                0,
                1
            ]
        }
    ],
    "textures" : [
        {
            "sampler" : 0,
            "source" : 0
        }
    ]
}
