{
    "accessors" : [
        {
            "bufferView" : 0,
            "componentType" : 5121,
            "count" : 66,
            "max" : [
                39
            ],
            "min" : [
                0
            ],
            "type" : "SCALAR"
        },
        {
            "bufferView" : 1,
            "componentType" : 5126,
            "count" : 40,
            "max" : [
                1.0623470544815063,
                1.9859650135040283,
                1.040594220161438
            ],
            "min" : [
                -1.0462936162948608,
                -0.014035224914550781,
                -1.0680464506149292
            ],
            "type" : "VEC3"
        },
        {
            "bufferView" : 2,
            "componentType" : 5126,
            "count" : 40,
            "max" : [
                0.9328531622886658,
                1.0,
                0.9328531622886658
            ],
            "min" : [
                -0.9328531622886658,
                0.0,
                -0.9328531622886658
            ],
            "type" : "VEC3"
        },
        {
            "bufferView" : 3,
            "componentType" : 5123,
            "count" : 3204,
            "max" : [
                2132
            ],
            "min" : [
                0
            ],
            "type" : "SCALAR"
        },
        {
            "bufferView" : 4,
            "componentType" : 5126,
            "count" : 2133,
            "max" : [
                5.0,
                5.0,
                0.02290988713502884
            ],
            "min" : [
                -5.000000476837158,
                -5.0,
                -10.71165657043457
            ],
            "type" : "VEC3"
        },
        {
            "bufferView" : 5,
            "componentType" : 5126,
            "count" : 2133,
            "max" : [
                1.0,
                1.0,
                1.0
            ],
            "min" : [
                -1.0,
                -1.0,
                -1.0
            ],
            "type" : "VEC3"
        },
        {
            "bufferView" : 6,
            "componentType" : 5126,
            "count" : 2133,
            "max" : [
                0.8550786972045898,
                0.9650366865098476
            ],
            "min" : [
                0.1694926917552948,
                0.014743030071258545
            ],
            "type" : "VEC2"
        }
    ],
    "asset" : {
        "generator" : "Khronos Blender glTF 2.0 exporter",
        "version" : "2.0"
    },
    "bufferViews" : [
        {
            "buffer" : 0,
            "byteLength" : 66,
            "byteOffset" : 0,
            "target" : 34963
        },
        {
            "buffer" : 0,
            "byteLength" : 480,
            "byteOffset" : 68,
            "target" : 34962
        },
        {
            "buffer" : 0,
            "byteLength" : 480,
            "byteOffset" : 548,
            "target" : 34962
        },
        {
            "buffer" : 0,
            "byteLength" : 6408,
            "byteOffset" : 1028,
            "target" : 34963
        },
        {
            "buffer" : 0,
            "byteLength" : 25596,
            "byteOffset" : 7436,
            "target" : 34962
        },
        {
            "buffer" : 0,
            "byteLength" : 25596,
            "byteOffset" : 33032,
            "target" : 34962
        },
        {
            "buffer" : 0,
            "byteLength" : 17064,
            "byteOffset" : 58628,
            "target" : 34962
        }
    ],
    "buffers" : [
        {
            "byteLength" : 75692,
            "uri" : "Crossroads_B.bin"
        }
    ],
    "images" : [
        {
            "name" : "Texture_Roads",
            "uri" : "Texture_Roads.png"
        }
    ],
    "materials" : [
        {
            "name" : "Atlas_Texture",
            "pbrMetallicRoughness" : {
                "baseColorFactor" : [
                    0.6400000190734865,
                    0.6400000190734865,
                    0.6400000190734865,
                    1.0
                ],
                "baseColorTexture" : {
                    "index" : 0
                },
                "metallicFactor" : 0.0
            }
        }
    ],
    "meshes" : [
        {
            "name" : "Cube.001",
            "primitives" : [
                {
                    "attributes" : {
                        "NORMAL" : 2,
                        "POSITION" : 1
                    },
                    "indices" : 0
                }
            ]
        },
        {
            "name" : "Scifi_Panel_01 Plaza014_group4.009",
            "primitives" : [
                {
                    "attributes" : {
                        "NORMAL" : 5,
                        "POSITION" : 4,
                        "TEXCOORD_0" : 6
                    },
                    "indices" : 3,
                    "material" : 0
                }
            ]
        }
    ],
    "nodes" : [
        {
            "mesh" : 0,
            "name" : "Box15_collider",
            "rotation" : [
                0.0,
                -0.296638548374176,
                -0.0,
                0.9549898505210876
            ],
            "scale" : [
                1.3515291213989258,
                0.9278152585029602,
                1.3515291213989258
            ],
            "translation" : [
                0.0,
                5.960464477539063e-08,
                1.862645149230957e-09
            ]
        },
        {
            "mesh" : 1,
            "name" : "Scifi_Panel_01 Plaza014_group4.004",
            "rotation" : [
                0.7071068286895752,
                0.0,
                -0.0,
                0.7071067094802856
            ]
        }
    ],
    "samplers" : [
        {}
    ],
    "scene" : 0,
    "scenes" : [
        {
            "name" : "Scene",
            "nodes" : [
                1,
                0
            ]
        }
    ],
    "textures" : [
        {
            "sampler" : 0,
            "source" : 0
        }
    ]
}
