{
    "accessors" : [
        {
            "bufferView" : 0,
            "componentType" : 5123,
            "count" : 3042,
            "max" : [
                2001
            ],
            "min" : [
                0
            ],
            "type" : "SCALAR"
        },
        {
            "bufferView" : 1,
            "componentType" : 5126,
            "count" : 2002,
            "max" : [
                5.0,
                5.0,
                -0.0
            ],
            "min" : [
                -5.000000476837158,
                -5.0,
                -9.3606538772583
            ],
            "type" : "VEC3"
        },
        {
            "bufferView" : 2,
            "componentType" : 5126,
            "count" : 2002,
            "max" : [
                1.0,
                1.0,
                1.0
            ],
            "min" : [
                -1.0,
                -1.0,
                -1.0
            ],
            "type" : "VEC3"
        },
        {
            "bufferView" : 3,
            "componentType" : 5126,
            "count" : 2002,
            "max" : [
                0.9786659479141235,
                0.9487260207533836
            ],
            "min" : [
                0.16400690376758575,
                0.011670947074890137
            ],
            "type" : "VEC2"
        },
        {
            "bufferView" : 4,
            "componentType" : 5121,
            "count" : 66,
            "max" : [
                39
            ],
            "min" : [
                0
            ],
            "type" : "SCALAR"
        },
        {
            "bufferView" : 5,
            "componentType" : 5126,
            "count" : 40,
            "max" : [
                1.0623470544815063,
                1.9859650135040283,
                1.040594220161438
            ],
            "min" : [
                -1.0462936162948608,
                -0.014035224914550781,
                -1.0680464506149292
            ],
            "type" : "VEC3"
        },
        {
            "bufferView" : 6,
            "componentType" : 5126,
            "count" : 40,
            "max" : [
                0.9328531622886658,
                1.0,
                0.9328531622886658
            ],
            "min" : [
                -0.9328531622886658,
                0.0,
                -0.9328531622886658
            ],
            "type" : "VEC3"
        }
    ],
    "asset" : {
        "generator" : "Khronos Blender glTF 2.0 exporter",
        "version" : "2.0"
    },
    "bufferViews" : [
        {
            "buffer" : 0,
            "byteLength" : 6084,
            "byteOffset" : 0,
            "target" : 34963
        },
        {
            "buffer" : 0,
            "byteLength" : 24024,
            "byteOffset" : 6084,
            "target" : 34962
        },
        {
            "buffer" : 0,
            "byteLength" : 24024,
            "byteOffset" : 30108,
            "target" : 34962
        },
        {
            "buffer" : 0,
            "byteLength" : 16016,
            "byteOffset" : 54132,
            "target" : 34962
        },
        {
            "buffer" : 0,
            "byteLength" : 66,
            "byteOffset" : 70148,
            "target" : 34963
        },
        {
            "buffer" : 0,
            "byteLength" : 480,
            "byteOffset" : 70216,
            "target" : 34962
        },
        {
            "buffer" : 0,
            "byteLength" : 480,
            "byteOffset" : 70696,
            "target" : 34962
        }
    ],
    "buffers" : [
        {
            "byteLength" : 71176,
            "uri" : "Crossroads_C.bin"
        }
    ],
    "images" : [
        {
            "name" : "Texture_Roads",
            "uri" : "Texture_Roads.png"
        }
    ],
    "materials" : [
        {
            "name" : "Atlas_Texture",
            "pbrMetallicRoughness" : {
                "baseColorFactor" : [
                    0.6400000190734865,
                    0.6400000190734865,
                    0.6400000190734865,
                    1.0
                ],
                "baseColorTexture" : {
                    "index" : 0
                },
                "metallicFactor" : 0.0
            }
        }
    ],
    "meshes" : [
        {
            "name" : "Scifi_Panel_02 Plaza014_group4.002",
            "primitives" : [
                {
                    "attributes" : {
                        "NORMAL" : 2,
                        "POSITION" : 1,
                        "TEXCOORD_0" : 3
                    },
                    "indices" : 0,
                    "material" : 0
                }
            ]
        },
        {
            "name" : "Cube.002",
            "primitives" : [
                {
                    "attributes" : {
                        "NORMAL" : 6,
                        "POSITION" : 5
                    },
                    "indices" : 4
                }
            ]
        }
    ],
    "nodes" : [
        {
            "mesh" : 1,
            "name" : "Box16_collider",
            "rotation" : [
                0.0,
                -0.296638548374176,
                -0.0,
                0.9549898505210876
            ],
            "scale" : [
                1.3515291213989258,
                0.9278152585029602,
                1.3515291213989258
            ],
            "translation" : [
                0.0,
                5.960464477539063e-08,
                1.862645149230957e-09
            ]
        },
        {
            "mesh" : 0,
            "name" : "Scifi_Panel_02 Plaza014_group4.003",
            "rotation" : [
                0.7071068286895752,
                0.0,
                -0.0,
                0.7071067094802856
            ]
        }
    ],
    "samplers" : [
        {}
    ],
    "scene" : 0,
    "scenes" : [
        {
            "name" : "Scene",
            "nodes" : [
                1,
                0
            ]
        }
    ],
    "textures" : [
        {
            "sampler" : 0,
            "source" : 0
        }
    ]
}
