{
    "accessors" : [
        {
            "bufferView" : 0,
            "componentType" : 5121,
            "count" : 120,
            "max" : [
                79
            ],
            "min" : [
                0
            ],
            "type" : "SCALAR"
        },
        {
            "bufferView" : 1,
            "componentType" : 5126,
            "count" : 80,
            "max" : [
                3.0921759605407715,
                2.0519847869873047,
                7.415299415588379
            ],
            "min" : [
                -2.4249844551086426,
                0.0519833117723465,
                -9.685036659240723
            ],
            "type" : "VEC3"
        },
        {
            "bufferView" : 2,
            "componentType" : 5126,
            "count" : 80,
            "max" : [
                1.0,
                1.0,
                1.0
            ],
            "min" : [
                -1.0,
                0.0,
                -1.0
            ],
            "type" : "VEC3"
        },
        {
            "bufferView" : 3,
            "componentType" : 5123,
            "count" : 2634,
            "max" : [
                1735
            ],
            "min" : [
                0
            ],
            "type" : "SCALAR"
        },
        {
            "bufferView" : 4,
            "componentType" : 5126,
            "count" : 1736,
            "max" : [
                5.0,
                5.0,
                8.428566502516333e-07
            ],
            "min" : [
                -5.000000476837158,
                -5.0,
                -1.517587661743164
            ],
            "type" : "VEC3"
        },
        {
            "bufferView" : 5,
            "componentType" : 5126,
            "count" : 1736,
            "max" : [
                1.0,
                1.0,
                1.0
            ],
            "min" : [
                -1.0,
                -1.0,
                -1.0
            ],
            "type" : "VEC3"
        },
        {
            "bufferView" : 6,
            "componentType" : 5126,
            "count" : 1736,
            "max" : [
                1.0,
                1.0,
                0.8070701360702515,
                1.0
            ],
            "min" : [
                -1.0,
                -1.0,
                -1.0,
                -1.0
            ],
            "type" : "VEC4"
        },
        {
            "bufferView" : 7,
            "componentType" : 5126,
            "count" : 1736,
            "max" : [
                0.7257096171379089,
                0.9853097572922707
            ],
            "min" : [
                0.03723682463169098,
                0.014743030071258545
            ],
            "type" : "VEC2"
        },
        {
            "bufferView" : 8,
            "componentType" : 5126,
            "count" : 1736,
            "max" : [
                1.0,
                1.0,
                1.0,
                1.0
            ],
            "min" : [
                1.0,
                1.0,
                1.0,
                1.0
            ],
            "type" : "VEC4"
        }
    ],
    "asset" : {
        "generator" : "Khronos Blender glTF 2.0 exporter",
        "version" : "2.0"
    },
    "bufferViews" : [
        {
            "buffer" : 0,
            "byteLength" : 120,
            "byteOffset" : 0,
            "target" : 34963
        },
        {
            "buffer" : 0,
            "byteLength" : 960,
            "byteOffset" : 120,
            "target" : 34962
        },
        {
            "buffer" : 0,
            "byteLength" : 960,
            "byteOffset" : 1080,
            "target" : 34962
        },
        {
            "buffer" : 0,
            "byteLength" : 5268,
            "byteOffset" : 2040,
            "target" : 34963
        },
        {
            "buffer" : 0,
            "byteLength" : 20832,
            "byteOffset" : 7308,
            "target" : 34962
        },
        {
            "buffer" : 0,
            "byteLength" : 20832,
            "byteOffset" : 28140,
            "target" : 34962
        },
        {
            "buffer" : 0,
            "byteLength" : 27776,
            "byteOffset" : 48972,
            "target" : 34962
        },
        {
            "buffer" : 0,
            "byteLength" : 13888,
            "byteOffset" : 76748,
            "target" : 34962
        },
        {
            "buffer" : 0,
            "byteLength" : 27776,
            "byteOffset" : 90636,
            "target" : 34962
        }
    ],
    "buffers" : [
        {
            "byteLength" : 118412,
            "uri" : "Corner_B.bin"
        }
    ],
    "images" : [
        {
            "name" : "Texture_Roads",
            "uri" : "Texture_Roads.png"
        }
    ],
    "materials" : [
        {
            "name" : "Atlas_Texture",
            "pbrMetallicRoughness" : {
                "baseColorFactor" : [
                    0.6400000190734865,
                    0.6400000190734865,
                    0.6400000190734865,
                    1.0
                ],
                "baseColorTexture" : {
                    "index" : 0
                },
                "metallicFactor" : 0.0
            }
        }
    ],
    "meshes" : [
        {
            "name" : "Cube.1437",
            "primitives" : [
                {
                    "attributes" : {
                        "NORMAL" : 2,
                        "POSITION" : 1
                    },
                    "indices" : 0
                }
            ]
        },
        {
            "name" : "Scifi_Panel_01 Plaza014_group4.013",
            "primitives" : [
                {
                    "attributes" : {
                        "COLOR_0" : 8,
                        "NORMAL" : 5,
                        "POSITION" : 4,
                        "TANGENT" : 6,
                        "TEXCOORD_0" : 7
                    },
                    "indices" : 3,
                    "material" : 0
                }
            ]
        }
    ],
    "nodes" : [
        {
            "mesh" : 0,
            "name" : "Box55_collider",
            "rotation" : [
                0.0,
                0.7071068286895752,
                -0.0,
                0.7071067690849304
            ],
            "scale" : [
                1.5420939922332764,
                0.8122724294662476,
                0.48215413093566895
            ]
        },
        {
            "mesh" : 1,
            "name" : "Scifi_Panel_01 Plaza014_group4.035",
            "rotation" : [
                0.7071068286895752,
                0.0,
                -0.0,
                0.7071067094802856
            ]
        }
    ],
    "samplers" : [
        {}
    ],
    "scene" : 0,
    "scenes" : [
        {
            "name" : "Scene",
            "nodes" : [
                0,
                1
            ]
        }
    ],
    "textures" : [
        {
            "sampler" : 0,
            "source" : 0
        }
    ]
}
