# Blender v2.79 (sub 0) OBJ File: 'ModulesforRoads.blend'
# www.blender.org
mtllib 5-D.mtl
o Cube.1029_Cube.1153
v 37.394081 -0.000001 -39.936058
v 37.394081 0.173418 -39.936058
v 37.394081 -0.000001 -40.109478
v 37.394081 0.173418 -40.109478
v 37.567501 -0.000001 -39.936058
v 37.567501 0.173418 -39.936058
v 37.567501 -0.000001 -40.109478
v 37.567501 0.173418 -40.109478
vn -1.0000 0.0000 0.0000
vn 0.0000 0.0000 -1.0000
vn 1.0000 0.0000 0.0000
vn 0.0000 0.0000 1.0000
vn 0.0000 -1.0000 0.0000
vn 0.0000 1.0000 0.0000
usemtl None
s off
f 1//1 2//1 4//1 3//1
f 3//2 4//2 8//2 7//2
f 7//3 8//3 6//3 5//3
f 5//4 6//4 2//4 1//4
f 3//5 7//5 5//5 1//5
f 8//6 4//6 2//6 6//6
o Cube.1028_Cube.1152
v 37.394081 0.000001 -49.762630
v 37.394081 0.173420 -49.762630
v 37.394081 0.000001 -49.936050
v 37.394081 0.173420 -49.936050
v 37.567501 0.000001 -49.762630
v 37.567501 0.173420 -49.762630
v 37.567501 0.000001 -49.936050
v 37.567501 0.173420 -49.936050
vn -1.0000 0.0000 0.0000
vn 0.0000 0.0000 -1.0000
vn 1.0000 0.0000 0.0000
vn 0.0000 0.0000 1.0000
vn 0.0000 -1.0000 0.0000
vn 0.0000 1.0000 0.0000
usemtl None
s off
f 9//7 10//7 12//7 11//7
f 11//8 12//8 16//8 15//8
f 15//9 16//9 14//9 13//9
f 13//10 14//10 10//10 9//10
f 11//11 15//11 13//11 9//11
f 16//12 12//12 10//12 14//12
o Scifi_Panel_04_Plaza014_group4.033_Scifi_Panel_04_Plaza014_group4.034
v 32.821068 0.037385 -40.022377
v 32.815598 0.044861 -40.025536
v 32.756065 0.044861 -39.991158
v 32.756065 0.037385 -39.984840
v 32.821068 0.037385 -40.097435
v 32.815598 0.044861 -40.094276
v 32.756065 0.037385 -40.134964
v 32.756065 0.044861 -40.128647
v 32.691063 0.037385 -40.097435
v 32.696533 0.044861 -40.094276
v 32.691063 0.037385 -40.022377
v 32.696533 0.044861 -40.025536
v 32.821068 0.007477 -40.022377
v 32.821068 0.007477 -40.097435
v 32.756065 0.007477 -40.134964
v 32.691063 0.007477 -40.097435
v 32.691063 0.007477 -40.022377
v 32.756065 0.007477 -39.984840
v 32.756065 0.044861 -40.059906
v 37.547504 0.016923 -46.626385
v 37.547504 0.016923 -45.704910
v 37.567505 0.005000 -45.704910
v 37.567505 0.005000 -46.626385
v 37.547504 0.016924 -49.053047
v 37.567505 0.005001 -49.053047
v 37.547504 0.005001 -49.916058
v 37.567505 0.005001 -49.936058
v 34.459236 0.005001 -49.916058
v 34.449203 0.005001 -49.936058
v 34.449203 0.005001 -49.926086
v 37.547504 0.016923 -44.553829
v 37.557507 0.005000 -44.543831
v 37.567505 0.005000 -44.543831
v 34.459236 0.016924 -49.053047
v 34.459236 0.016923 -46.618721
v 33.631416 0.016923 -45.697247
v 34.439240 0.016923 -45.704910
v 34.439240 0.016923 -44.553829
v 33.631416 0.016923 -44.553829
v 37.567505 0.005000 -44.523834
v 34.439240 0.005000 -44.543831
v 34.439240 0.016923 -44.523834
v 34.439240 0.016923 -42.929619
v 34.439240 0.016922 -40.563091
v 37.567505 0.004999 -40.563091
v 37.567505 0.005000 -42.929619
v 32.915115 0.016923 -42.929619
v 32.915115 0.016922 -40.563091
v 33.611420 0.016922 -40.563091
v 33.611420 0.016923 -42.929619
v 33.611420 0.016923 -44.523834
v 32.915115 0.016923 -44.523834
v 33.611420 0.004999 -40.553093
v 34.439240 0.004999 -40.553093
v 37.567505 0.004999 -40.553093
v 32.895126 0.004999 -40.543098
v 32.915443 0.016922 -40.523109
v 33.611420 0.016922 -40.523109
v 33.611420 0.004999 -40.543098
v 32.905121 0.004999 -39.936058
v 32.925117 0.004999 -39.936058
v 34.439240 0.016922 -40.523109
v 34.439240 0.004999 -40.543098
v 37.567505 0.004999 -40.523109
v 37.567505 0.004999 -40.543098
v 33.611420 0.004999 -39.936058
v 34.439240 0.004999 -39.936058
v 37.567505 0.004999 -39.936058
v 34.429276 0.005001 -49.936058
v 34.429276 0.016924 -49.053047
v 34.449203 0.005001 -49.053047
v 34.429245 0.016923 -46.630219
v 34.449173 0.005000 -46.622482
v 33.621384 0.005001 -49.936058
v 33.621384 0.016924 -49.053047
v 33.621384 0.016923 -46.626385
v 33.621384 0.016923 -45.730915
v 32.905121 0.016924 -49.043083
v 27.567507 0.005001 -49.043083
v 27.567507 0.005000 -46.626385
v 32.905121 0.016923 -46.626385
v 27.567507 0.005000 -45.714874
v 32.905304 0.016923 -45.714874
v 33.591484 0.016923 -46.626385
v 33.591484 0.016924 -49.043083
v 33.591484 0.016923 -45.689247
v 32.905121 0.005001 -49.053047
v 32.905121 0.016924 -49.072975
v 27.567507 0.005001 -49.072975
v 27.567507 0.005001 -49.053047
v 33.621498 0.005001 -49.053047
v 33.601341 0.016924 -49.072975
v 33.611420 0.005001 -49.936058
v 33.591492 0.005001 -49.936058
v 33.611420 0.005000 -46.626385
v 27.567507 0.005001 -49.936058
v 32.905121 0.005001 -49.936058
v 32.900124 0.005000 -42.929619
v 32.890121 0.016923 -42.929619
v 32.879959 0.016922 -40.553062
v 32.889954 0.004999 -40.553082
v 32.890121 0.004999 -39.936058
v 32.900124 0.004999 -39.936058
v 27.567507 0.005000 -44.533833
v 27.567507 0.005000 -42.929619
v 32.890121 0.016923 -44.543819
v 27.567507 0.004999 -40.553093
v 27.567507 0.004999 -39.936058
v 32.899895 0.016923 -45.689945
v 27.567507 0.005000 -45.689945
v 33.598969 0.016593 -44.562691
v 33.616531 0.007022 -44.540440
v 33.615822 0.005988 -45.674065
v 33.598961 0.016593 -45.651840
v 32.913620 0.016593 -44.561916
v 32.897461 0.008168 -44.538822
v 32.921715 0.016593 -45.680874
v 32.903976 0.007519 -45.703098
v 27.567507 0.005000 -45.699944
v 32.821068 0.037386 -45.513542
v 32.815598 0.044862 -45.516701
v 32.756065 0.044862 -45.482323
v 32.756065 0.037386 -45.476009
v 32.821068 0.037386 -45.588600
v 32.815598 0.044862 -45.585442
v 32.756065 0.037386 -45.626129
v 32.756065 0.044862 -45.619816
v 32.691063 0.037386 -45.588600
v 32.696533 0.044862 -45.585442
v 32.691063 0.037386 -45.513542
v 32.696533 0.044862 -45.516701
v 32.821068 0.007478 -45.513542
v 32.821068 0.007478 -45.588600
v 32.756065 0.007478 -45.626129
v 32.691063 0.007478 -45.588600
v 32.691063 0.007478 -45.513542
v 32.756065 0.007478 -45.476009
v 32.756065 0.044862 -45.551071
v 27.769533 0.037385 -40.022377
v 27.764063 0.044861 -40.025536
v 27.704523 0.044861 -39.991158
v 27.704523 0.037385 -39.984840
v 27.769533 0.037385 -40.097435
v 27.764063 0.044861 -40.094276
v 27.704523 0.037385 -40.134964
v 27.704523 0.044861 -40.128647
v 27.639521 0.037385 -40.097435
v 27.644991 0.044861 -40.094276
v 27.639521 0.037385 -40.022377
v 27.644991 0.044861 -40.025536
v 27.769533 0.007477 -40.022377
v 27.769533 0.007477 -40.097435
v 27.704523 0.007477 -40.134964
v 27.639521 0.007477 -40.097435
v 27.639521 0.007477 -40.022377
v 27.704523 0.007477 -39.984840
v 27.704523 0.044861 -40.059906
v 27.769533 0.037386 -45.513542
v 27.764063 0.044862 -45.516701
v 27.704523 0.044862 -45.482323
v 27.704523 0.037386 -45.476009
v 27.769533 0.037386 -45.588600
v 27.764063 0.044862 -45.585442
v 27.704523 0.037386 -45.626129
v 27.704523 0.044862 -45.619816
v 27.639521 0.037386 -45.588600
v 27.644991 0.044862 -45.585442
v 27.639521 0.037386 -45.513542
v 27.644991 0.044862 -45.516701
v 27.769533 0.007478 -45.513542
v 27.769533 0.007478 -45.588600
v 27.704523 0.007478 -45.626129
v 27.639521 0.007478 -45.588600
v 27.639521 0.007478 -45.513542
v 27.704523 0.007478 -45.476009
v 27.704523 0.044862 -45.551071
vt 0.685735 0.110550
vt 0.685735 0.124808
vt 0.686044 0.124808
vt 0.686044 0.110550
vt 0.685735 0.073002
vt 0.686044 0.073002
vt 0.685735 0.059648
vt 0.686044 0.059339
vt 0.637949 0.059648
vt 0.637794 0.059339
vt 0.637794 0.059493
vt 0.685735 0.142619
vt 0.685889 0.142774
vt 0.686044 0.142774
vt 0.637949 0.073002
vt 0.637949 0.110669
vt 0.625140 0.124927
vt 0.637640 0.124808
vt 0.637640 0.142619
vt 0.625140 0.142619
vt 0.637640 0.142774
vt 0.637794 0.073002
vt 0.637793 0.110610
vt 0.613825 0.167751
vt 0.613670 0.167751
vt 0.613513 0.204524
vt 0.613667 0.204523
vt 0.613670 0.214070
vt 0.613825 0.214070
vt 0.531312 0.142928
vt 0.531312 0.167751
vt 0.613670 0.142774
vt 0.531312 0.204523
vt 0.531312 0.214070
vt 0.613821 0.125040
vt 0.531312 0.125040
vt 0.624910 0.142826
vt 0.624899 0.125285
vt 0.613784 0.142851
vt 0.613884 0.124836
vt 0.531312 0.124885
vt 0.846014 0.478316
vt 0.845467 0.478000
vt 0.839514 0.481438
vt 0.839514 0.482070
vt 0.846014 0.470810
vt 0.845467 0.471126
vt 0.839514 0.467057
vt 0.839514 0.467689
vt 0.833014 0.470810
vt 0.833560 0.471126
vt 0.833014 0.478316
vt 0.833560 0.478000
vt 0.846014 0.478316
vt 0.846014 0.470810
vt 0.839514 0.467057
vt 0.833014 0.470810
vt 0.833014 0.478316
vt 0.839514 0.482070
vt 0.765039 0.480979
vt 0.765209 0.481147
vt 0.771040 0.481147
vt 0.771040 0.480979
vt 0.765122 0.486065
vt 0.765290 0.486065
vt 0.777976 0.481147
vt 0.777976 0.480979
vt 0.804186 0.481147
vt 0.804186 0.480979
vt 0.771040 0.486065
vt 0.777976 0.486065
vt 0.804186 0.486065
vt 0.770421 0.268411
vt 0.770222 0.268311
vt 0.770222 0.277141
vt 0.770421 0.277141
vt 0.770221 0.301369
vt 0.770421 0.301447
vt 0.762143 0.268311
vt 0.762143 0.277141
vt 0.762143 0.301408
vt 0.762143 0.310362
vt 0.770421 0.268311
vt 0.762043 0.268311
vt 0.762144 0.277141
vt 0.762043 0.301408
vt 0.762087 0.310931
vt 0.857890 0.442252
vt 0.857343 0.441936
vt 0.851390 0.445374
vt 0.851390 0.446005
vt 0.857890 0.434746
vt 0.857343 0.435062
vt 0.851390 0.430993
vt 0.851390 0.431624
vt 0.844890 0.434746
vt 0.845436 0.435062
vt 0.844890 0.442252
vt 0.845436 0.441936
vt 0.857890 0.442252
vt 0.857890 0.434746
vt 0.851390 0.430993
vt 0.844890 0.434746
vt 0.844890 0.442252
vt 0.851390 0.446005
vt 0.830161 0.461690
vt 0.829613 0.461373
vt 0.823659 0.464811
vt 0.823659 0.465443
vt 0.830161 0.454184
vt 0.829613 0.454499
vt 0.823659 0.450430
vt 0.823659 0.451062
vt 0.817159 0.454184
vt 0.817707 0.454499
vt 0.817159 0.461690
vt 0.817707 0.461373
vt 0.830161 0.461690
vt 0.830161 0.454184
vt 0.823659 0.450430
vt 0.817159 0.454184
vt 0.817159 0.461690
vt 0.823659 0.465443
vt 0.830161 0.437501
vt 0.829613 0.437186
vt 0.823659 0.440623
vt 0.823659 0.441254
vt 0.830161 0.429995
vt 0.829613 0.430312
vt 0.823659 0.426243
vt 0.823659 0.426874
vt 0.817159 0.429995
vt 0.817707 0.430312
vt 0.817159 0.437501
vt 0.817707 0.437186
vt 0.830161 0.437501
vt 0.830161 0.429995
vt 0.823659 0.426243
vt 0.817159 0.429995
vt 0.817159 0.437501
vt 0.823659 0.441254
vt 0.839514 0.474563
vt 0.851390 0.438499
vt 0.823659 0.457936
vt 0.823659 0.433749
vt 0.687105 0.391231
vt 0.686978 0.390977
vt 0.647318 0.390977
vt 0.647318 0.391231
vt 0.647318 0.411507
vt 0.647318 0.441606
vt 0.687105 0.441606
vt 0.687105 0.411507
vt 0.627934 0.411507
vt 0.627934 0.441606
vt 0.636790 0.441606
vt 0.636790 0.411507
vt 0.636790 0.391231
vt 0.627934 0.391231
vt 0.687105 0.390977
vt 0.636790 0.441733
vt 0.647318 0.441733
vt 0.687105 0.441733
vt 0.636790 0.441860
vt 0.647318 0.441860
vt 0.687105 0.441860
vt 0.627807 0.333753
vt 0.559920 0.333753
vt 0.559920 0.364490
vt 0.627807 0.364490
vt 0.559920 0.376083
vt 0.627809 0.376083
vt 0.636536 0.364490
vt 0.636536 0.333753
vt 0.636536 0.376409
vt 0.627807 0.333627
vt 0.627807 0.333373
vt 0.559920 0.333373
vt 0.559920 0.333627
vt 0.636918 0.333627
vt 0.636661 0.333373
vt 0.636790 0.322396
vt 0.636536 0.322396
vt 0.636790 0.364490
vt 0.559920 0.322396
vt 0.627807 0.322396
vt 0.627743 0.411507
vt 0.627614 0.441733
vt 0.627679 0.441860
vt 0.627743 0.449581
vt 0.627807 0.449581
vt 0.636631 0.390737
vt 0.636855 0.391020
vt 0.636846 0.376602
vt 0.636631 0.376885
vt 0.627915 0.390747
vt 0.627709 0.391041
vt 0.628018 0.376516
vt 0.627792 0.376233
vt 0.559920 0.376273
vn 0.5121 0.8589 0.0000
vn 0.2826 0.9592 -0.0066
vn 0.0000 1.0000 0.0000
vn 0.5113 0.8594 0.0022
vn 0.0000 0.9999 -0.0138
vn 0.0000 0.6426 0.7662
vn -0.5086 0.8610 -0.0059
vn -0.7647 0.6444 -0.0000
vn 0.7663 0.6425 0.0033
vn 0.5122 0.8589 -0.0001
vn -0.0022 1.0000 0.0000
vn -0.0011 1.0000 0.0097
vn 0.0023 0.7304 0.6830
vn -0.7208 0.2649 -0.6405
vn -0.5645 0.8254 -0.0002
vn 0.7663 0.6425 -0.0000
vn 0.8476 0.5306 0.0058
vn -0.0014 0.9264 -0.3765
vn 0.4035 0.5906 0.6988
vn 0.8070 0.5905 0.0000
vn 0.4035 0.5905 -0.6989
vn -0.4035 0.5905 -0.6989
vn -0.8072 0.5902 0.0000
vn -0.4036 0.5905 0.6989
vn 1.0000 0.0000 0.0000
vn 0.5000 0.0000 -0.8660
vn -0.5000 0.0000 -0.8660
vn -1.0000 0.0000 0.0000
vn -0.5001 0.0000 0.8660
vn 0.5001 0.0000 0.8660
vn 0.0000 0.8588 -0.5123
vn -0.2901 0.9569 0.0143
vn 0.0018 0.9583 -0.2858
vn 0.0000 0.9998 0.0203
vn 0.0019 0.9999 0.0102
vn 0.2881 0.9576 -0.0065
vn 0.5134 0.8581 0.0000
vn 0.0000 0.9999 -0.0135
vn -0.7709 0.6369 0.0001
vn -0.9243 0.3817 -0.0019
vn 0.2935 0.9198 0.2602
vn -0.8252 0.5648 0.0017
vn 0.4036 0.5905 0.6989
vn 0.4036 0.5904 -0.6989
vn -0.4036 0.5904 -0.6990
vn -0.8073 0.5902 0.0000
vn -0.4036 0.5904 0.6990
vn -0.5000 0.0000 0.8660
vn 0.5000 0.0000 0.8660
vn 0.8071 0.5905 0.0000
vn 0.4035 0.5905 -0.6990
vn -0.4035 0.5906 -0.6989
vn -0.8070 0.5906 0.0000
vn -0.4035 0.5906 0.6988
vn 0.5000 0.0000 -0.8661
vn 0.4036 0.5904 0.6990
vn 0.4036 0.5904 -0.6990
vn -0.4036 0.5904 -0.6989
vn -0.4036 0.5904 0.6989
vn 0.0018 0.9582 -0.2861
vn 0.0038 1.0000 0.0000
vn 0.0016 0.8589 0.5121
vn -0.0011 0.9580 0.2866
vn 0.0000 0.8581 0.5134
vn 0.2896 0.9571 -0.0098
vn 0.0000 0.6413 -0.7673
vn -0.0010 0.8581 -0.5134
vn 0.4310 0.9024 0.0009
vn -0.0011 1.0000 -0.0069
vn -0.5108 0.8597 -0.0011
vn 0.0000 0.6428 0.7661
vn 0.5057 0.8627 -0.0006
vn 0.0014 0.9295 0.3688
vn -0.4588 0.8885 -0.0032
vn 0.0179 0.9141 -0.4051
vn 0.0000 0.8589 -0.5121
vn 0.4592 0.8883 -0.0015
vn -0.5355 0.8446 0.0013
vn 0.0001 0.8611 -0.5085
vn -0.0012 0.9433 0.3321
vn -0.0232 0.7885 0.6146
usemtl BAC7BD.009
s off
f 36/1/13 37/2/13 38/3/13 39/4/13
f 40/5/13 36/1/13 39/4/13 41/6/13
f 42/7/14 40/5/14 41/6/14 43/8/14
f 44/9/15 42/7/15 43/8/15 45/10/15 46/11/15
f 37/2/16 47/12/16 48/13/16 49/14/16 38/3/16
f 50/15/15 51/16/15 36/1/15 40/5/15
f 44/9/17 50/15/17 40/5/17 42/7/17
f 51/16/15 52/17/15 53/18/15
f 36/1/15 51/16/15 53/18/15 37/2/15
f 37/2/15 53/18/15 54/19/15 47/12/15
f 53/18/15 52/17/15 55/20/15 54/19/15
f 47/12/18 54/19/18 57/21/18 48/13/18
f 50/15/19 44/9/19 46/11/19 87/22/19
f 51/16/20 50/15/20 87/22/20 89/23/20
f 114/24/21 115/25/21 116/26/21 117/27/21
f 117/27/22 116/26/22 118/28/22 119/29/22
f 120/30/23 121/31/23 115/25/23 122/32/23
f 121/31/23 123/33/23 116/26/23 115/25/23
f 123/33/24 124/34/24 118/28/24 116/26/24
f 125/35/23 126/36/23 120/30/23 122/32/23
f 54/19/25 55/20/25 128/37/25 57/21/25
f 52/17/26 51/16/26 89/23/26 129/38/26
f 55/20/27 52/17/27 129/38/27 128/37/27
f 115/25/28 114/24/28 132/39/28 122/32/28
f 122/32/29 132/39/29 134/40/29 125/35/29
f 135/41/30 126/36/30 125/35/30 134/40/30
usemtl A2A6A0.009
f 17/42/31 18/43/31 19/44/31 20/45/31
f 18/43/32 17/42/32 21/46/32 22/47/32
f 22/47/33 21/46/33 23/48/33 24/49/33
f 24/49/34 23/48/34 25/50/34 26/51/34
f 26/51/35 25/50/35 27/52/35 28/53/35
f 28/53/36 27/52/36 20/45/36 19/44/36
f 29/54/37 30/55/37 21/46/37 17/42/37
f 30/55/38 31/56/38 23/48/38 21/46/38
f 31/56/39 32/57/39 25/50/39 23/48/39
f 32/57/40 33/58/40 27/52/40 25/50/40
f 33/58/41 34/59/41 20/45/41 27/52/41
f 34/59/42 29/54/42 17/42/42 20/45/42
f 72/60/43 73/61/43 74/62/43 75/63/43
f 73/61/44 72/60/44 76/64/44 77/65/44
f 75/63/43 74/62/43 78/66/43 79/67/43
f 79/67/45 78/66/45 80/68/45 81/69/45
f 74/62/46 73/61/46 77/65/46 82/70/46
f 78/66/46 74/62/46 82/70/46 83/71/46
f 80/68/47 78/66/47 83/71/47 84/72/47
f 46/73/48 85/74/48 86/75/48 87/76/48
f 87/76/49 86/75/49 88/77/49 89/78/49
f 90/79/50 91/80/50 86/75/50 85/74/50
f 91/80/15 92/81/15 88/77/15 86/75/15
f 88/77/15 92/81/15 93/82/15
f 85/74/15 46/73/15 45/83/15
f 90/79/51 109/84/51 107/85/51 91/80/51
f 91/80/52 107/85/52 111/86/52 92/81/52
f 89/78/53 88/77/53 93/82/53 129/87/53
f 129/87/54 93/82/54 92/81/54 111/86/54
f 136/88/55 137/89/55 138/90/55 139/91/55
f 137/89/32 136/88/32 140/92/32 141/93/32
f 141/93/56 140/92/56 142/94/56 143/95/56
f 143/95/57 142/94/57 144/96/57 145/97/57
f 145/97/58 144/96/58 146/98/58 147/99/58
f 147/99/59 146/98/59 139/91/59 138/90/59
f 148/100/37 149/101/37 140/92/37 136/88/37
f 149/101/38 150/102/38 142/94/38 140/92/38
f 150/102/39 151/103/39 144/96/39 142/94/39
f 151/103/40 152/104/40 146/98/40 144/96/40
f 152/104/60 153/105/60 139/91/60 146/98/60
f 153/105/61 148/100/61 136/88/61 139/91/61
f 155/106/55 156/107/55 157/108/55 158/109/55
f 156/107/62 155/106/62 159/110/62 160/111/62
f 160/111/63 159/110/63 161/112/63 162/113/63
f 162/113/64 161/112/64 163/114/64 164/115/64
f 164/115/65 163/114/65 165/116/65 166/117/65
f 166/117/66 165/116/66 158/109/66 157/108/66
f 167/118/37 168/119/37 159/110/37 155/106/37
f 168/119/67 169/120/67 161/112/67 159/110/67
f 169/120/39 170/121/39 163/114/39 161/112/39
f 170/121/40 171/122/40 165/116/40 163/114/40
f 171/122/41 172/123/41 158/109/41 165/116/41
f 172/123/61 167/118/61 155/106/61 158/109/61
f 174/124/68 175/125/68 176/126/68 177/127/68
f 175/125/62 174/124/62 178/128/62 179/129/62
f 179/129/69 178/128/69 180/130/69 181/131/69
f 181/131/70 180/130/70 182/132/70 183/133/70
f 183/133/65 182/132/65 184/134/65 185/135/65
f 185/135/71 184/134/71 177/127/71 176/126/71
f 186/136/37 187/137/37 178/128/37 174/124/37
f 187/137/67 188/138/67 180/130/67 178/128/67
f 188/138/39 189/139/39 182/132/39 180/130/39
f 189/139/40 190/140/40 184/134/40 182/132/40
f 190/140/60 191/141/60 177/127/60 184/134/60
f 191/141/61 186/136/61 174/124/61 177/127/61
s 1
f 18/43/15 22/47/15 35/142/15
f 22/47/15 24/49/15 35/142/15
f 24/49/15 26/51/15 35/142/15
f 26/51/15 28/53/15 35/142/15
f 28/53/15 19/44/15 35/142/15
f 19/44/15 18/43/15 35/142/15
f 137/89/15 141/93/15 154/143/15
f 141/93/15 143/95/15 154/143/15
f 143/95/15 145/97/15 154/143/15
f 145/97/15 147/99/15 154/143/15
f 147/99/15 138/90/15 154/143/15
f 138/90/15 137/89/15 154/143/15
f 156/107/15 160/111/15 173/144/15
f 160/111/15 162/113/15 173/144/15
f 162/113/15 164/115/15 173/144/15
f 164/115/15 166/117/15 173/144/15
f 166/117/15 157/108/15 173/144/15
f 157/108/15 156/107/15 173/144/15
f 175/125/15 179/129/15 192/145/15
f 179/129/15 181/131/15 192/145/15
f 181/131/15 183/133/15 192/145/15
f 183/133/15 185/135/15 192/145/15
f 185/135/15 176/126/15 192/145/15
f 176/126/15 175/125/15 192/145/15
usemtl C4CEC7.009
s off
f 56/146/72 48/147/72 57/148/72 58/149/72
f 59/150/73 60/151/73 61/152/73 62/153/73
f 63/154/15 64/155/15 65/156/15 66/157/15
f 66/157/15 65/156/15 60/151/15 59/150/15
f 67/158/15 68/159/15 63/154/15 66/157/15
f 58/149/15 67/158/15 66/157/15 59/150/15
f 56/146/73 58/149/73 59/150/73 62/153/73
f 49/160/15 48/147/15 56/146/15
f 65/156/18 69/161/18 70/162/18 60/151/18
f 60/151/74 70/162/74 71/163/74 61/152/74
f 69/161/15 75/164/15 79/165/15 70/162/15
f 70/162/15 79/165/15 81/166/15 71/163/15
f 94/167/23 95/168/23 96/169/23 97/170/23
f 96/169/23 98/171/23 99/172/23 97/170/23
f 94/167/15 97/170/15 100/173/15 101/174/15
f 100/173/15 97/170/15 99/172/15 102/175/15
f 103/176/75 104/177/75 105/178/75 106/179/75
f 104/177/76 103/176/76 107/180/76 108/181/76
f 108/181/77 107/180/77 109/182/77 110/183/77
f 103/176/78 94/167/78 101/174/78 107/180/78
f 94/167/79 103/176/79 106/179/79 95/168/79
f 107/180/80 101/174/80 100/173/80 111/184/80
f 112/185/81 105/178/81 104/177/81 113/186/81
f 113/186/17 104/177/17 108/181/17 110/183/17
f 63/154/82 114/187/82 117/188/82 64/155/82
f 64/155/83 117/188/83 69/161/83 65/156/83
f 72/189/15 117/188/15 119/190/15 76/191/15
f 117/188/15 72/189/15 75/164/15 69/161/15
f 127/192/84 128/193/84 129/194/84 130/195/84
f 128/193/85 127/192/85 131/196/85 132/197/85
f 132/197/86 131/196/86 133/198/86 134/199/86
f 130/195/87 129/194/87 134/199/87 133/198/87
f 58/149/88 57/148/88 128/193/88 67/158/88
f 111/184/89 100/173/89 102/175/89 129/194/89
f 114/187/90 63/154/90 68/159/90 132/197/90
f 132/197/91 68/159/91 67/158/91 128/193/91
f 98/171/92 135/200/92 134/199/92 99/172/92
f 99/172/93 134/199/93 129/194/93 102/175/93
f 130/195/15 133/198/15 131/196/15 127/192/15
