{
    "accessors" : [
        {
            "bufferView" : 0,
            "componentType" : 5121,
            "count" : 30,
            "max" : [
                19
            ],
            "min" : [
                0
            ],
            "type" : "SCALAR"
        },
        {
            "bufferView" : 1,
            "componentType" : 5126,
            "count" : 20,
            "max" : [
                1.0,
                1.0,
                1.0
            ],
            "min" : [
                -1.0,
                -1.0,
                -1.0
            ],
            "type" : "VEC3"
        },
        {
            "bufferView" : 2,
            "componentType" : 5126,
            "count" : 20,
            "max" : [
                1.0,
                1.0,
                1.0
            ],
            "min" : [
                -1.0,
                0.0,
                -1.0
            ],
            "type" : "VEC3"
        },
        {
            "bufferView" : 3,
            "componentType" : 5121,
            "count" : 30,
            "max" : [
                19
            ],
            "min" : [
                0
            ],
            "type" : "SCALAR"
        },
        {
            "bufferView" : 4,
            "componentType" : 5126,
            "count" : 20,
            "max" : [
                1.0,
                1.0,
                1.0
            ],
            "min" : [
                -1.0,
                -1.0,
                -1.0
            ],
            "type" : "VEC3"
        },
        {
            "bufferView" : 5,
            "componentType" : 5126,
            "count" : 20,
            "max" : [
                1.0,
                1.0,
                1.0
            ],
            "min" : [
                -1.0,
                0.0,
                -1.0
            ],
            "type" : "VEC3"
        },
        {
            "bufferView" : 6,
            "componentType" : 5121,
            "count" : 30,
            "max" : [
                19
            ],
            "min" : [
                0
            ],
            "type" : "SCALAR"
        },
        {
            "bufferView" : 7,
            "componentType" : 5126,
            "count" : 20,
            "max" : [
                1.0,
                1.0,
                1.0
            ],
            "min" : [
                -1.0,
                -1.0,
                -1.0
            ],
            "type" : "VEC3"
        },
        {
            "bufferView" : 8,
            "componentType" : 5126,
            "count" : 20,
            "max" : [
                1.0,
                1.0,
                1.0
            ],
            "min" : [
                -1.0,
                0.0,
                -1.0
            ],
            "type" : "VEC3"
        },
        {
            "bufferView" : 9,
            "componentType" : 5121,
            "count" : 30,
            "max" : [
                19
            ],
            "min" : [
                0
            ],
            "type" : "SCALAR"
        },
        {
            "bufferView" : 10,
            "componentType" : 5126,
            "count" : 20,
            "max" : [
                1.0,
                1.0,
                1.0
            ],
            "min" : [
                -1.0,
                -1.0,
                -1.0
            ],
            "type" : "VEC3"
        },
        {
            "bufferView" : 11,
            "componentType" : 5126,
            "count" : 20,
            "max" : [
                1.0,
                1.0,
                1.0
            ],
            "min" : [
                -1.0,
                0.0,
                -1.0
            ],
            "type" : "VEC3"
        },
        {
            "bufferView" : 12,
            "componentType" : 5121,
            "count" : 30,
            "max" : [
                19
            ],
            "min" : [
                0
            ],
            "type" : "SCALAR"
        },
        {
            "bufferView" : 13,
            "componentType" : 5126,
            "count" : 20,
            "max" : [
                1.0,
                1.0,
                1.0
            ],
            "min" : [
                -1.0,
                -1.0,
                -1.0
            ],
            "type" : "VEC3"
        },
        {
            "bufferView" : 14,
            "componentType" : 5126,
            "count" : 20,
            "max" : [
                1.0,
                1.0,
                1.0
            ],
            "min" : [
                -1.0,
                0.0,
                -1.0
            ],
            "type" : "VEC3"
        },
        {
            "bufferView" : 15,
            "componentType" : 5123,
            "count" : 4770,
            "max" : [
                2312
            ],
            "min" : [
                0
            ],
            "type" : "SCALAR"
        },
        {
            "bufferView" : 16,
            "componentType" : 5126,
            "count" : 2313,
            "max" : [
                5.0,
                5.0,
                0.05706299841403961
            ],
            "min" : [
                -5.0,
                -5.000009536743164,
                -2.1447062492370605
            ],
            "type" : "VEC3"
        },
        {
            "bufferView" : 17,
            "componentType" : 5126,
            "count" : 2313,
            "max" : [
                1.0,
                1.0,
                1.0
            ],
            "min" : [
                -1.0,
                -1.0,
                -1.0
            ],
            "type" : "VEC3"
        },
        {
            "bufferView" : 18,
            "componentType" : 5126,
            "count" : 2313,
            "max" : [
                0.9807746410369873,
                0.9755882229655981
            ],
            "min" : [
                0.1375499814748764,
                0.01149451732635498
            ],
            "type" : "VEC2"
        }
    ],
    "asset" : {
        "generator" : "Khronos Blender glTF 2.0 exporter",
        "version" : "2.0"
    },
    "bufferViews" : [
        {
            "buffer" : 0,
            "byteLength" : 30,
            "byteOffset" : 0,
            "target" : 34963
        },
        {
            "buffer" : 0,
            "byteLength" : 240,
            "byteOffset" : 32,
            "target" : 34962
        },
        {
            "buffer" : 0,
            "byteLength" : 240,
            "byteOffset" : 272,
            "target" : 34962
        },
        {
            "buffer" : 0,
            "byteLength" : 30,
            "byteOffset" : 512,
            "target" : 34963
        },
        {
            "buffer" : 0,
            "byteLength" : 240,
            "byteOffset" : 544,
            "target" : 34962
        },
        {
            "buffer" : 0,
            "byteLength" : 240,
            "byteOffset" : 784,
            "target" : 34962
        },
        {
            "buffer" : 0,
            "byteLength" : 30,
            "byteOffset" : 1024,
            "target" : 34963
        },
        {
            "buffer" : 0,
            "byteLength" : 240,
            "byteOffset" : 1056,
            "target" : 34962
        },
        {
            "buffer" : 0,
            "byteLength" : 240,
            "byteOffset" : 1296,
            "target" : 34962
        },
        {
            "buffer" : 0,
            "byteLength" : 30,
            "byteOffset" : 1536,
            "target" : 34963
        },
        {
            "buffer" : 0,
            "byteLength" : 240,
            "byteOffset" : 1568,
            "target" : 34962
        },
        {
            "buffer" : 0,
            "byteLength" : 240,
            "byteOffset" : 1808,
            "target" : 34962
        },
        {
            "buffer" : 0,
            "byteLength" : 30,
            "byteOffset" : 2048,
            "target" : 34963
        },
        {
            "buffer" : 0,
            "byteLength" : 240,
            "byteOffset" : 2080,
            "target" : 34962
        },
        {
            "buffer" : 0,
            "byteLength" : 240,
            "byteOffset" : 2320,
            "target" : 34962
        },
        {
            "buffer" : 0,
            "byteLength" : 9540,
            "byteOffset" : 2560,
            "target" : 34963
        },
        {
            "buffer" : 0,
            "byteLength" : 27756,
            "byteOffset" : 12100,
            "target" : 34962
        },
        {
            "buffer" : 0,
            "byteLength" : 27756,
            "byteOffset" : 39856,
            "target" : 34962
        },
        {
            "buffer" : 0,
            "byteLength" : 18504,
            "byteOffset" : 67612,
            "target" : 34962
        }
    ],
    "buffers" : [
        {
            "byteLength" : 86116,
            "uri" : "DeadEnd_D.bin"
        }
    ],
    "images" : [
        {
            "name" : "Texture_Roads",
            "uri" : "Texture_Roads.png"
        }
    ],
    "materials" : [
        {
            "name" : "Atlas_Texture",
            "pbrMetallicRoughness" : {
                "baseColorFactor" : [
                    0.6400000190734865,
                    0.6400000190734865,
                    0.6400000190734865,
                    1.0
                ],
                "baseColorTexture" : {
                    "index" : 0
                },
                "metallicFactor" : 0.0
            }
        }
    ],
    "meshes" : [
        {
            "name" : "Cube.1453",
            "primitives" : [
                {
                    "attributes" : {
                        "NORMAL" : 2,
                        "POSITION" : 1
                    },
                    "indices" : 0
                }
            ]
        },
        {
            "name" : "Cube.1451",
            "primitives" : [
                {
                    "attributes" : {
                        "NORMAL" : 5,
                        "POSITION" : 4
                    },
                    "indices" : 3
                }
            ]
        },
        {
            "name" : "Cube.1449",
            "primitives" : [
                {
                    "attributes" : {
                        "NORMAL" : 8,
                        "POSITION" : 7
                    },
                    "indices" : 6
                }
            ]
        },
        {
            "name" : "Cube.1450",
            "primitives" : [
                {
                    "attributes" : {
                        "NORMAL" : 11,
                        "POSITION" : 10
                    },
                    "indices" : 9
                }
            ]
        },
        {
            "name" : "Cube.1454",
            "primitives" : [
                {
                    "attributes" : {
                        "NORMAL" : 14,
                        "POSITION" : 13
                    },
                    "indices" : 12
                }
            ]
        },
        {
            "name" : "Scifi_Panel_03 Plaza014_group4.010",
            "primitives" : [
                {
                    "attributes" : {
                        "NORMAL" : 17,
                        "POSITION" : 16,
                        "TEXCOORD_0" : 18
                    },
                    "indices" : 15,
                    "material" : 0
                }
            ]
        }
    ],
    "nodes" : [
        {
            "mesh" : 3,
            "name" : "Box64_collider",
            "scale" : [
                0.48833152651786804,
                1.1240606307983398,
                0.48833152651786804
            ],
            "translation" : [
                2.5670628547668457,
                1.1037421226501465,
                -8.990047454833984
            ]
        },
        {
            "mesh" : 2,
            "name" : "Box65_collider",
            "scale" : [
                0.48833152651786804,
                1.1240606307983398,
                0.48833152651786804
            ],
            "translation" : [
                8.517995834350586,
                1.1037421226501465,
                -8.990047454833984
            ]
        },
        {
            "mesh" : 1,
            "name" : "Box66_collider",
            "rotation" : [
                0.0,
                0.7071068286895752,
                -0.0,
                0.7071067690849304
            ],
            "scale" : [
                4.435663223266602,
                0.46671727299690247,
                0.6131851673126221
            ],
            "translation" : [
                0.8032026290893555,
                0.4707838296890259,
                -4.983633995056152
            ]
        },
        {
            "mesh" : 0,
            "name" : "Box67_collider",
            "scale" : [
                0.48833152651786804,
                1.1240606307983398,
                0.48833152651786804
            ],
            "translation" : [
                2.5424153804779053,
                1.1037421226501465,
                -1.075035810470581
            ]
        },
        {
            "mesh" : 4,
            "name" : "Box68_collider",
            "scale" : [
                0.48833152651786804,
                1.1240606307983398,
                0.48833152651786804
            ],
            "translation" : [
                8.542415618896484,
                1.1037421226501465,
                -1.075035810470581
            ]
        },
        {
            "mesh" : 5,
            "name" : "Scifi_Panel_03 Plaza014_group4.024",
            "rotation" : [
                0.7071068286895752,
                0.0,
                -0.0,
                0.7071067094802856
            ],
            "translation" : [
                5.0,
                0.0,
                -5.0
            ]
        }
    ],
    "samplers" : [
        {}
    ],
    "scene" : 0,
    "scenes" : [
        {
            "name" : "Scene",
            "nodes" : [
                4,
                3,
                0,
                1,
                5,
                2
            ]
        }
    ],
    "textures" : [
        {
            "sampler" : 0,
            "source" : 0
        }
    ]
}
