{
    "accessors" : [
        {
            "bufferView" : 0,
            "componentType" : 5121,
            "count" : 120,
            "max" : [
                73
            ],
            "min" : [
                0
            ],
            "type" : "SCALAR"
        },
        {
            "bufferView" : 1,
            "componentType" : 5126,
            "count" : 74,
            "max" : [
                1.021095871925354,
                2.0087132453918457,
                7.650798320770264
            ],
            "min" : [
                -1.0591974258422852,
                0.008713134564459324,
                -7.625762462615967
            ],
            "type" : "VEC3"
        },
        {
            "bufferView" : 2,
            "componentType" : 5126,
            "count" : 74,
            "max" : [
                1.0,
                1.0,
                1.0
            ],
            "min" : [
                -1.0,
                -1.0,
                -1.0
            ],
            "type" : "VEC3"
        },
        {
            "bufferView" : 3,
            "componentType" : 5123,
            "count" : 11598,
            "max" : [
                5227
            ],
            "min" : [
                0
            ],
            "type" : "SCALAR"
        },
        {
            "bufferView" : 4,
            "componentType" : 5126,
            "count" : 5228,
            "max" : [
                4.999998092651367,
                4.999998092651367,
                0.007963388226926327
            ],
            "min" : [
                -4.999999523162842,
                -5.000009536743164,
                -0.9359250664710999
            ],
            "type" : "VEC3"
        },
        {
            "bufferView" : 5,
            "componentType" : 5126,
            "count" : 5228,
            "max" : [
                1.0,
                1.0,
                1.0
            ],
            "min" : [
                -1.0,
                -1.0,
                -1.0
            ],
            "type" : "VEC3"
        },
        {
            "bufferView" : 6,
            "componentType" : 5126,
            "count" : 5228,
            "max" : [
                0.9774183034896851,
                0.857091873884201
            ],
            "min" : [
                0.1375499814748764,
                0.008586406707763672
            ],
            "type" : "VEC2"
        }
    ],
    "asset" : {
        "generator" : "Khronos Blender glTF 2.0 exporter",
        "version" : "2.0"
    },
    "bufferViews" : [
        {
            "buffer" : 0,
            "byteLength" : 120,
            "byteOffset" : 0,
            "target" : 34963
        },
        {
            "buffer" : 0,
            "byteLength" : 888,
            "byteOffset" : 120,
            "target" : 34962
        },
        {
            "buffer" : 0,
            "byteLength" : 888,
            "byteOffset" : 1008,
            "target" : 34962
        },
        {
            "buffer" : 0,
            "byteLength" : 23196,
            "byteOffset" : 1896,
            "target" : 34963
        },
        {
            "buffer" : 0,
            "byteLength" : 62736,
            "byteOffset" : 25092,
            "target" : 34962
        },
        {
            "buffer" : 0,
            "byteLength" : 62736,
            "byteOffset" : 87828,
            "target" : 34962
        },
        {
            "buffer" : 0,
            "byteLength" : 41824,
            "byteOffset" : 150564,
            "target" : 34962
        }
    ],
    "buffers" : [
        {
            "byteLength" : 192388,
            "uri" : "DeadEnd_A.bin"
        }
    ],
    "images" : [
        {
            "name" : "Texture_Roads",
            "uri" : "Texture_Roads.png"
        }
    ],
    "materials" : [
        {
            "name" : "Atlas_Texture",
            "pbrMetallicRoughness" : {
                "baseColorFactor" : [
                    0.6400000190734865,
                    0.6400000190734865,
                    0.6400000190734865,
                    1.0
                ],
                "baseColorTexture" : {
                    "index" : 0
                },
                "metallicFactor" : 0.0
            }
        }
    ],
    "meshes" : [
        {
            "name" : "Cube.042",
            "primitives" : [
                {
                    "attributes" : {
                        "NORMAL" : 2,
                        "POSITION" : 1
                    },
                    "indices" : 0
                }
            ]
        },
        {
            "name" : "Scifi_Panel_04_Plaza014_group4.011_Scifi_Panel_04_Plaza014_.014",
            "primitives" : [
                {
                    "attributes" : {
                        "NORMAL" : 5,
                        "POSITION" : 4,
                        "TEXCOORD_0" : 6
                    },
                    "indices" : 3,
                    "material" : 0
                }
            ]
        }
    ],
    "nodes" : [
        {
            "mesh" : 0,
            "name" : "Box25_collider",
            "scale" : [
                4.435663223266602,
                0.46671727299690247,
                0.6131851673126221
            ]
        },
        {
            "mesh" : 1,
            "name" : "Scifi_Panel_04_Plaza014_group4.011_Scifi_Panel_04_Plaza014_.037",
            "rotation" : [
                0.7071068286895752,
                0.0,
                -0.0,
                0.7071067094802856
            ]
        }
    ],
    "samplers" : [
        {}
    ],
    "scene" : 0,
    "scenes" : [
        {
            "name" : "Scene",
            "nodes" : [
                1,
                0
            ]
        }
    ],
    "textures" : [
        {
            "sampler" : 0,
            "source" : 0
        }
    ]
}
